# Blender v3.1.2 OBJ File: ''
# www.blender.org
mtllib sbrc_windshield.mtl
o sbrc_windshield_Mesh.013
v 0.684056 0.990875 0.347547
v 0.610235 0.993514 0.493287
v 0.486098 0.797255 0.902983
v 0.444160 0.993930 0.575943
v 0.673651 0.797159 0.814845
v 0.726769 0.894501 0.492861
v 0.643827 0.894642 0.668803
v 0.465347 0.894637 0.752680
v 0.160754 0.797253 0.953544
v 0.145210 0.994274 0.621484
v 0.153095 0.894778 0.801040
v 0.299339 0.994149 0.605035
v 0.324421 0.797248 0.936003
v 0.311036 0.894737 0.784046
v 0.641923 1.053754 0.236835
v 0.574881 1.056561 0.377036
v 0.421618 1.057748 0.450739
v 0.138581 1.064790 0.495088
v 0.286812 1.064414 0.479071
v 0.538245 0.993744 0.538051
v 0.591857 0.797220 0.863522
v 0.566014 0.894584 0.715479
v 0.509380 1.057202 0.416360
v 0.672963 0.991695 0.399794
v 0.749026 0.797253 0.685045
v 0.713567 0.894571 0.550351
v 0.631519 1.054490 0.284192
v 0.647890 0.992762 0.461450
v 0.718059 0.797098 0.761763
v 0.685350 0.894525 0.619527
v 0.608489 1.055485 0.337460
v 0.764098 0.797541 0.622326
v 0.000027 0.894792 0.807943
v 0.595267 1.125267 0.121307
v 0.533527 1.127415 0.244118
v 0.401924 1.129865 0.307673
v 0.130367 1.131736 0.348695
v 0.275087 1.131101 0.333106
v 0.477138 1.128861 0.279281
v 0.585806 1.125451 0.164271
v 0.564163 1.126108 0.209972
v -0.684002 0.990875 0.347547
v -0.641869 1.053754 0.236835
v -0.631466 1.054490 0.284192
v -0.672910 0.991695 0.399794
v -0.764044 0.797541 0.622326
v -0.726716 0.894501 0.492861
v -0.713514 0.894571 0.550351
v -0.748972 0.797253 0.685045
v -0.610182 0.993514 0.493287
v -0.574828 1.056561 0.377036
v -0.509327 1.057202 0.416360
v -0.538192 0.993744 0.538051
v -0.673597 0.797159 0.814845
v -0.643774 0.894642 0.668803
v -0.565961 0.894584 0.715479
v -0.591803 0.797220 0.863522
v -0.401871 1.129865 0.307673
v -0.275034 1.131101 0.333106
v -0.286759 1.064414 0.479071
v -0.421565 1.057748 0.450739
v -0.444106 0.993930 0.575943
v -0.299285 0.994149 0.605035
v -0.310983 0.894737 0.784046
v -0.465294 0.894637 0.752680
v -0.153042 0.894778 0.801040
v -0.160700 0.797253 0.953544
v -0.324367 0.797248 0.936003
v 0.000027 0.797251 0.961323
v -0.130314 1.131736 0.348695
v 0.000027 1.131938 0.354546
v 0.000027 1.064920 0.501256
v -0.138528 1.064790 0.495088
v -0.145157 0.994274 0.621484
v 0.000027 0.994324 0.627990
v -0.486045 0.797255 0.902983
v -0.595214 1.125267 0.121307
v -0.585752 1.125451 0.164271
v -0.533473 1.127415 0.244118
v -0.477085 1.128861 0.279281
v -0.608436 1.055485 0.337460
v -0.647837 0.992762 0.461450
v -0.685297 0.894525 0.619527
v -0.718006 0.797098 0.761763
v -0.564110 1.126108 0.209972
vt 0.830576 0.205548
vt 0.808310 0.286174
vt 0.786925 0.286235
vt 0.808622 0.205590
vt 0.871808 0.010114
vt 0.853174 0.106731
vt 0.830462 0.106801
vt 0.847952 0.010131
vt 0.765115 0.205681
vt 0.746614 0.286409
vt 0.711765 0.286464
vt 0.726856 0.205693
vt 0.797672 0.010137
vt 0.783449 0.106872
vt 0.742031 0.106813
vt 0.754177 0.010134
vt 0.587296 0.359000
vt 0.593524 0.286567
vt 0.665117 0.286509
vt 0.654653 0.359001
vt 0.600052 0.205714
vt 0.606485 0.106966
vt 0.688490 0.106867
vt 0.676899 0.205702
vt 0.522572 0.107006
vt 0.526143 0.010131
vt 0.612600 0.010132
vt 0.441284 0.107020
vt 0.441284 0.010131
vt 0.441284 0.358997
vt 0.441284 0.286609
vt 0.514829 0.286599
vt 0.510466 0.358998
vt 0.441284 0.205722
vt 0.518288 0.205720
vt 0.698111 0.010131
vt 0.783305 0.359013
vt 0.762171 0.359012
vt 0.724374 0.359007
vt 0.694599 0.359004
vt 0.766341 0.286319
vt 0.786966 0.205644
vt 0.807299 0.106755
vt 0.823180 0.010141
vt 0.742306 0.359010
vt 0.051994 0.205548
vt 0.073948 0.205590
vt 0.095638 0.286235
vt 0.074259 0.286174
vt 0.010761 0.010114
vt 0.034611 0.010131
vt 0.052101 0.106801
vt 0.029388 0.106731
vt 0.117454 0.205681
vt 0.155706 0.205693
vt 0.170798 0.286464
vt 0.135955 0.286409
vt 0.084892 0.010137
vt 0.128392 0.010134
vt 0.140533 0.106813
vt 0.099120 0.106872
vt 0.295268 0.359000
vt 0.227910 0.359001
vt 0.217446 0.286509
vt 0.289046 0.286567
vt 0.282516 0.205714
vt 0.205664 0.205702
vt 0.194074 0.106867
vt 0.276078 0.106966
vt 0.359997 0.107006
vt 0.269963 0.010132
vt 0.356426 0.010131
vt 0.372102 0.358998
vt 0.367740 0.286599
vt 0.364277 0.205720
vt 0.184452 0.010131
vt 0.120398 0.359012
vt 0.099258 0.359013
vt 0.187965 0.359004
vt 0.158197 0.359007
vt 0.116222 0.286319
vt 0.095601 0.205644
vt 0.059389 0.010141
vt 0.075270 0.106755
vt 0.140263 0.359010
vn 0.7177 0.6816 0.1422
vn 0.6998 0.6997 0.1436
vn 0.6351 0.7492 0.1880
vn 0.6895 0.6975 0.1953
vn 0.8037 0.5625 0.1941
vn 0.7873 0.5902 0.1783
vn 0.7422 0.6289 0.2315
vn 0.7293 0.6314 0.2635
vn 0.3142 0.8577 0.4069
vn 0.3236 0.8738 0.3629
vn 0.2111 0.8859 0.4130
vn 0.2213 0.8755 0.4295
vn 0.3656 0.8068 0.4641
vn 0.3780 0.8187 0.4322
vn 0.2319 0.8466 0.4791
vn 0.2346 0.8307 0.5049
vn 0.0811 0.9050 0.4175
vn 0.0864 0.8941 0.4394
vn 0.1480 0.8934 0.4241
vn 0.1371 0.8920 0.4307
vn 0.0753 0.8738 0.4805
vn 0.0790 0.8580 0.5076
vn 0.1430 0.8546 0.4993
vn 0.1429 0.8788 0.4552
vn 0.0390 0.8589 0.5106
vn 0.0411 0.8429 0.5365
vn 0.0820 0.8421 0.5331
vn 0.0000 0.8593 0.5116
vn 0.0000 0.8438 0.5366
vn 0.0000 0.9097 0.4152
vn 0.0000 0.8919 0.4522
vn 0.0357 0.8920 0.4505
vn 0.0340 0.9098 0.4137
vn 0.0000 0.8744 0.4853
vn 0.0372 0.8741 0.4843
vn 0.1471 0.8393 0.5235
vn 0.6986 0.6995 0.1508
vn 0.6627 0.7270 0.1797
vn 0.3507 0.8668 0.3545
vn 0.2219 0.8863 0.4066
vn 0.4898 0.8270 0.2761
vn 0.5108 0.7967 0.3231
vn 0.5799 0.7399 0.3409
vn 0.5557 0.7401 0.3787
vn 0.5113 0.8129 0.2787
vn -0.7177 0.6816 0.1422
vn -0.6895 0.6975 0.1953
vn -0.6351 0.7492 0.1880
vn -0.6998 0.6997 0.1436
vn -0.8037 0.5625 0.1941
vn -0.7293 0.6314 0.2635
vn -0.7422 0.6289 0.2315
vn -0.7873 0.5902 0.1783
vn -0.3142 0.8577 0.4069
vn -0.2213 0.8755 0.4295
vn -0.2111 0.8859 0.4130
vn -0.3236 0.8738 0.3629
vn -0.3656 0.8068 0.4641
vn -0.2346 0.8307 0.5049
vn -0.2319 0.8466 0.4791
vn -0.3780 0.8187 0.4322
vn -0.0811 0.9050 0.4175
vn -0.1371 0.8920 0.4307
vn -0.1480 0.8934 0.4241
vn -0.0864 0.8941 0.4394
vn -0.0753 0.8738 0.4805
vn -0.1429 0.8788 0.4552
vn -0.1430 0.8546 0.4993
vn -0.0790 0.8580 0.5076
vn -0.0390 0.8589 0.5106
vn -0.0820 0.8421 0.5331
vn -0.0411 0.8429 0.5365
vn -0.0340 0.9098 0.4137
vn -0.0357 0.8920 0.4505
vn -0.0372 0.8741 0.4843
vn -0.1471 0.8393 0.5235
vn -0.6627 0.7270 0.1797
vn -0.6986 0.6994 0.1508
vn -0.2219 0.8863 0.4066
vn -0.3507 0.8668 0.3545
vn -0.4898 0.8270 0.2761
vn -0.5108 0.7967 0.3231
vn -0.5557 0.7401 0.3787
vn -0.5799 0.7399 0.3409
vn -0.5113 0.8130 0.2787
usemtl sbr_glass.001
s 1
f 1/1/1 15/2/2 27/3/3
f 27/3/3 24/4/4 1/1/1
f 32/5/5 6/6/6 26/7/7
f 26/7/7 25/8/8 32/5/5
f 2/9/9 16/10/10 23/11/11
f 23/11/11 20/12/12 2/9/9
f 5/13/13 7/14/14 22/15/15
f 22/15/15 21/16/16 5/13/13
f 38/17/17 19/18/18 17/19/19
f 17/19/19 36/20/20 38/17/17
f 12/21/21 14/22/22 8/23/23
f 8/23/23 4/24/24 12/21/21
f 6/6/6 1/1/1 24/4/4
f 24/4/4 26/7/7 6/6/6
f 7/14/14 2/9/9 20/12/12
f 20/12/12 22/15/15 7/14/14
f 11/25/25 9/26/26 13/27/27
f 13/27/27 14/22/22 11/25/25
f 33/28/28 69/29/29 9/26/26
f 9/26/26 11/25/25 33/28/28
f 71/30/30 72/31/31 18/32/32
f 18/32/32 37/33/33 71/30/30
f 75/34/34 33/28/28 11/25/25
f 11/25/25 10/35/35 75/34/34
f 37/33/33 18/32/32 19/18/18
f 19/18/18 38/17/17 37/33/33
f 10/35/35 11/25/25 14/22/22
f 14/22/22 12/21/21 10/35/35
f 3/36/36 8/23/23 14/22/22
f 14/22/22 13/27/27 3/36/36
f 15/2/2 34/37/37 40/38/38
f 40/38/38 27/3/3 15/2/2
f 16/10/10 35/39/39 39/40/40
f 39/40/40 23/11/11 16/10/10
f 19/18/18 12/21/21 4/24/24
f 4/24/24 17/19/19 19/18/18
f 72/31/31 75/34/34 10/35/35
f 10/35/35 18/32/32 72/31/31
f 18/32/32 10/35/35 12/21/21
f 12/21/21 19/18/18 18/32/32
f 17/19/19 4/24/24 20/12/12
f 20/12/12 23/11/11 17/19/19
f 8/23/23 3/36/36 21/16/16
f 21/16/16 22/15/15 8/23/23
f 4/24/24 8/23/23 22/15/15
f 22/15/15 20/12/12 4/24/24
f 36/20/20 17/19/19 23/11/11
f 23/11/11 39/40/40 36/20/20
f 31/41/41 28/42/42 24/4/4
f 24/4/4 27/3/3 31/41/41
f 25/8/8 26/7/7 30/43/43
f 30/43/43 29/44/44 25/8/8
f 28/42/42 30/43/43 26/7/7
f 26/7/7 24/4/4 28/42/42
f 41/45/45 31/41/41 27/3/3
f 27/3/3 40/38/38 41/45/45
f 16/10/10 2/9/9 28/42/42
f 28/42/42 31/41/41 16/10/10
f 7/14/14 5/13/13 29/44/44
f 29/44/44 30/43/43 7/14/14
f 2/9/9 7/14/14 30/43/43
f 30/43/43 28/42/42 2/9/9
f 35/39/39 16/10/10 31/41/41
f 31/41/41 41/45/45 35/39/39
f 42/46/46 45/47/47 44/48/48
f 44/48/48 43/49/49 42/46/46
f 46/50/50 49/51/51 48/52/52
f 48/52/52 47/53/53 46/50/50
f 50/54/54 53/55/55 52/56/56
f 52/56/56 51/57/57 50/54/54
f 54/58/58 57/59/59 56/60/60
f 56/60/60 55/61/61 54/58/58
f 59/62/62 58/63/63 61/64/64
f 61/64/64 60/65/65 59/62/62
f 63/66/66 62/67/67 65/68/68
f 65/68/68 64/69/69 63/66/66
f 47/53/53 48/52/52 45/47/47
f 45/47/47 42/46/46 47/53/53
f 55/61/61 56/60/60 53/55/55
f 53/55/55 50/54/54 55/61/61
f 66/70/70 64/69/69 68/71/71
f 68/71/71 67/72/72 66/70/70
f 33/28/28 66/70/70 67/72/72
f 67/72/72 69/29/29 33/28/28
f 71/30/30 70/73/73 73/74/74
f 73/74/74 72/31/31 71/30/30
f 75/34/34 74/75/75 66/70/70
f 66/70/70 33/28/28 75/34/34
f 70/73/73 59/62/62 60/65/65
f 60/65/65 73/74/74 70/73/73
f 74/75/75 63/66/66 64/69/69
f 64/69/69 66/70/70 74/75/75
f 76/76/76 68/71/71 64/69/69
f 64/69/69 65/68/68 76/76/76
f 43/49/49 44/48/48 78/77/77
f 78/77/77 77/78/78 43/49/49
f 51/57/57 52/56/56 80/79/79
f 80/79/79 79/80/80 51/57/57
f 60/65/65 61/64/64 62/67/67
f 62/67/67 63/66/66 60/65/65
f 72/31/31 73/74/74 74/75/75
f 74/75/75 75/34/34 72/31/31
f 73/74/74 60/65/65 63/66/66
f 63/66/66 74/75/75 73/74/74
f 61/64/64 52/56/56 53/55/55
f 53/55/55 62/67/67 61/64/64
f 65/68/68 56/60/60 57/59/59
f 57/59/59 76/76/76 65/68/68
f 62/67/67 53/55/55 56/60/60
f 56/60/60 65/68/68 62/67/67
f 58/63/63 80/79/79 52/56/56
f 52/56/56 61/64/64 58/63/63
f 81/81/81 44/48/48 45/47/47
f 45/47/47 82/82/82 81/81/81
f 49/51/51 84/83/83 83/84/84
f 83/84/84 48/52/52 49/51/51
f 82/82/82 45/47/47 48/52/52
f 48/52/52 83/84/84 82/82/82
f 85/85/85 78/77/77 44/48/48
f 44/48/48 81/81/81 85/85/85
f 51/57/57 81/81/81 82/82/82
f 82/82/82 50/54/54 51/57/57
f 55/61/61 83/84/84 84/83/83
f 84/83/83 54/58/58 55/61/61
f 50/54/54 82/82/82 83/84/84
f 83/84/84 55/61/61 50/54/54
f 79/80/80 85/85/85 81/81/81
f 81/81/81 51/57/57 79/80/80
